<svg xmlns="http://www.w3.org/2000/svg" viewBox="0 0 888 24" width="888" height="24"><path d="M7.762 6.275l8.305 11.022" fill="none"/><path d="M12 12z" fill="#ff9797" fill-opacity=".3" stroke="#ff5050" stroke-width="0"/><path d="M15.987 6.216l-8.145 11.14" fill="none"/><g fill="none" stroke="#ff5050"><path d="M15.987 6.216l-8.145 11.14M7.762 6.275l8.305 11.022" stroke-linecap="round"/><path d="M2.057 11.957c0-5.516 4.452-9.986 9.942-9.986 5.492 0 9.944 4.47 9.944 9.986 0 5.515-4.452 9.986-9.944 9.986-5.49 0-9.942-4.471-9.942-9.986z"/></g><path d="M31.762 6.275l8.305 11.022" fill="none"/><path d="M35.922651 11.999665c0-.04291.034633-.077683.077341-.077683.042724 0 .077357.034773.077357.077683 0 .042903-.034633.077684-.077357.077684-.042708 0-.07734-.034781-.07734-.077684z" fill="#ff9797" fill-opacity=".3" stroke="#ff5050" stroke-width=".007779"/><path d="M39.987 6.216l-8.145 11.14" fill="none"/><g fill="none" stroke="#ff5050" stroke-opacity=".609085"><path d="M39.987 6.216l-8.145 11.14M31.762 6.275l8.305 11.022" stroke-linecap="round"/><path d="M26.057 11.957c0-5.516 4.452-9.986 9.942-9.986 5.492 0 9.944 4.47 9.944 9.986 0 5.515-4.452 9.986-9.944 9.986-5.49 0-9.942-4.471-9.942-9.986z"/></g><path d="M55.762 6.275l8.305 11.022" fill="none"/><path d="M59.690606 11.998662c0-.17164.138532-.310732.309363-.310732.170893 0 .309425.139092.309425.310732 0 .17161-.138532.310732-.309425.310732-.170831 0-.309363-.139123-.309363-.310732z" fill="#ff9797" fill-opacity=".3" stroke="#ff5050" stroke-width=".031117"/><path d="M63.987 6.216l-8.145 11.14" fill="none"/><g fill="none" stroke="#ff5050" stroke-opacity=".111004"><path d="M63.987 6.216l-8.145 11.14M55.762 6.275l8.305 11.022" stroke-linecap="round"/><path d="M50.057 11.957c0-5.516 4.452-9.986 9.942-9.986 5.492 0 9.944 4.47 9.944 9.986 0 5.515-4.452 9.986-9.944 9.986-5.49 0-9.942-4.471-9.942-9.986z"/></g><path d="M79.762 6.275l8.305 11.022" fill="none"/><path d="M83.303863 11.99699c0-.386191.311697-.699149.696067-.699149.38451 0 .696207.312958.696207.699148 0 .386121-.311697.699148-.696207.699148-.38437 0-.696067-.313027-.696067-.699148z" fill="#ff9797" fill-opacity=".3" stroke="#ff5050" stroke-width=".070013"/><path d="M87.987 6.216l-8.145 11.14" fill="none"/><g fill="none" stroke="#ff5050" stroke-opacity=".003031"><path d="M87.987 6.216l-8.145 11.14M79.762 6.275l8.305 11.022" stroke-linecap="round"/><path d="M74.057 11.957c0-5.516 4.452-9.986 9.942-9.986 5.492 0 9.944 4.47 9.944 9.986 0 5.515-4.452 9.986-9.944 9.986-5.49 0-9.942-4.471-9.942-9.986z"/></g><path d="M103.762 6.275l8.305 11.022" fill="none"/><path d="M106.762422 11.994648c0-.686561.554128-1.24293 1.237454-1.24293.683574 0 1.237702.556369 1.237702 1.24293 0 .686437-.554128 1.24293-1.237702 1.24293-.683326 0-1.237454-.556493-1.237454-1.24293z" fill="#ff9797" fill-opacity=".3" stroke="#ff5050" stroke-width=".124467"/><path d="M111.987 6.216l-8.145 11.14" fill="none"/><g fill="none"><path d="M111.987 6.216l-8.145 11.14M103.762 6.275l8.305 11.022M98.057 11.957c0-5.516 4.452-9.986 9.942-9.986 5.492 0 9.944 4.47 9.944 9.986 0 5.515-4.452 9.986-9.944 9.986-5.49 0-9.942-4.471-9.942-9.986z"/></g><path d="M127.762 6.275l8.305 11.022" fill="none"/><path d="M130.066285 11.991637c0-1.072752.865825-1.942077 1.93352-1.942077 1.068085 0 1.93391.869325 1.93391 1.942077 0 1.072558-.865825 1.942078-1.93391 1.942078-1.067695 0-1.93352-.86952-1.93352-1.942078z" fill="#ff9797" fill-opacity=".3" stroke="#ff5050" stroke-width=".19448"/><path d="M135.987 6.216l-8.145 11.14" fill="none"/><g fill="none"><path d="M135.987 6.216l-8.145 11.14M127.762 6.275l8.305 11.022M122.057 11.957c0-5.516 4.452-9.986 9.942-9.986 5.492 0 9.944 4.47 9.944 9.986 0 5.515-4.452 9.986-9.944 9.986-5.49 0-9.942-4.471-9.942-9.986z"/></g><path d="M151.762 6.275l8.305 11.022" fill="none"/><path d="M153.21545 11.987958c0-1.544763 1.246788-2.796592 2.78427-2.796592 1.538042 0 2.78483 1.251829 2.78483 2.796592 0 1.544483-1.246788 2.796592-2.78483 2.796592-1.537482 0-2.78427-1.25211-2.78427-2.796592z" fill="#ff9797" fill-opacity=".3" stroke="#ff5050" stroke-width=".280051"/><path d="M159.987 6.216l-8.145 11.14" fill="none"/><g fill="none"><path d="M159.987 6.216l-8.145 11.14M151.762 6.275l8.305 11.022M146.057 11.957c0-5.516 4.452-9.986 9.942-9.986 5.492 0 9.944 4.47 9.944 9.986 0 5.515-4.452 9.986-9.944 9.986-5.49 0-9.942-4.471-9.942-9.986z"/></g><path d="M175.762 6.275l8.305 11.022" fill="none"/><path d="M176.209918 11.98361c0-2.102595 1.697018-3.806473 3.7897-3.806473 2.093446 0 3.790464 1.703878 3.790464 3.806472 0 2.102213-1.697018 3.806473-3.790463 3.806473-2.092683 0-3.7897-1.70426-3.7897-3.806473z" fill="#ff9797" fill-opacity=".3" stroke="#ff5050" stroke-width=".381181"/><path d="M183.987 6.216l-8.145 11.14" fill="none"/><g fill="none"><path d="M183.987 6.216l-8.145 11.14M175.762 6.275l8.305 11.022M170.057 11.957c0-5.516 4.452-9.986 9.942-9.986 5.492 0 9.944 4.47 9.944 9.986 0 5.515-4.452 9.986-9.944 9.986-5.49 0-9.942-4.471-9.942-9.986z"/></g><path d="M199.762 6.275l8.305 11.022" fill="none"/><path d="M199.04969 11.978592c0-2.746245 2.216512-4.97172 4.949812-4.97172 2.734296 0 4.950809 2.225475 4.950809 4.97172 0 2.745747-2.216513 4.971719-4.950809 4.971719-2.7333 0-4.949813-2.225972-4.949813-4.97172z" fill="#ff9797" fill-opacity=".3" stroke="#ff5050" stroke-width=".497869"/><path d="M207.987 6.216l-8.145 11.14" fill="none"/><g fill="none"><path d="M207.987 6.216l-8.145 11.14M199.762 6.275l8.305 11.022M194.057 11.957c0-5.516 4.452-9.986 9.942-9.986 5.492 0 9.944 4.47 9.944 9.986 0 5.515-4.452 9.986-9.944 9.986-5.49 0-9.942-4.471-9.942-9.986z"/></g><path d="M223.762 6.275l8.305 11.022" fill="none"/><path d="M221.734763 11.972905c0-3.475716 2.805273-6.292332 6.264607-6.292332 3.460594 0 6.265867 2.816616 6.265867 6.292332 0 3.475086-2.805273 6.292332-6.265867 6.292332-3.459334 0-6.264607-2.817246-6.264607-6.292332z" fill="#ff9797" fill-opacity=".3" stroke="#ff5050" stroke-width=".630115"/><path d="M231.987 6.216l-8.145 11.14" fill="none"/><g fill="none"><path d="M231.987 6.216l-8.145 11.14M223.762 6.275l8.305 11.022M218.057 11.957c0-5.516 4.452-9.986 9.942-9.986 5.492 0 9.944 4.47 9.944 9.986 0 5.515-4.452 9.986-9.944 9.986-5.49 0-9.942-4.471-9.942-9.986z"/></g><g><path d="M247.762 6.275l8.305 11.022" fill="none"/><path d="M244.26514 11.96655c0-4.291009 3.4633-7.768312 7.734082-7.768312 4.272338 0 7.735639 3.477303 7.735639 7.768311 0 4.29023-3.463301 7.768312-7.735639 7.768312-4.270782 0-7.734083-3.478082-7.734083-7.768312z" fill="#ff9797" fill-opacity=".3" stroke="#ff5050" stroke-width=".77792"/><path d="M255.987 6.216l-8.145 11.14" fill="none"/><g fill="none"><path d="M255.987 6.216l-8.145 11.14M247.762 6.275l8.305 11.022M242.057 11.957c0-5.516 4.452-9.986 9.942-9.986 5.492 0 9.944 4.47 9.944 9.986 0 5.515-4.452 9.986-9.944 9.986-5.49 0-9.942-4.471-9.942-9.986z"/></g></g><g><path d="M271.762 6.275l8.305 11.022" fill="none"/><path d="M266.640818 11.959525c0-5.19212 4.190594-9.399657 9.35824-9.399657 5.16953 0 9.360124 4.207537 9.360124 9.399657 0 5.191178-4.190594 9.399657-9.360123 9.399657-5.167647 0-9.35824-4.208479-9.35824-9.399657z" fill="#ff9797" fill-opacity=".3" stroke="#ff5050" stroke-width=".941283"/><path d="M279.987 6.216l-8.145 11.14" fill="none"/><g fill="none"><path d="M279.987 6.216l-8.145 11.14M271.762 6.275l8.305 11.022M266.057 11.957c0-5.516 4.452-9.986 9.942-9.986 5.492 0 9.944 4.47 9.944 9.986 0 5.515-4.452 9.986-9.944 9.986-5.49 0-9.942-4.471-9.942-9.986z"/></g></g><g><path d="M295.762 6.275l8.305 11.022" fill="none"/><path d="M290.659503 11.959606c0-5.181755 4.182228-9.380892 9.339558-9.380892 5.159208 0 9.341436 4.199137 9.341436 9.380892 0 5.180814-4.182228 9.380891-9.341436 9.380891-5.15733 0-9.339558-4.200077-9.339558-9.380891z" fill="#ff9797" fill-opacity=".3" stroke="#ff5050" stroke-width=".939404"/><path d="M303.987 6.216l-8.145 11.14" fill="none"/><g fill="none"><path d="M303.987 6.216l-8.145 11.14M295.762 6.275l8.305 11.022M290.057 11.957c0-5.516 4.452-9.986 9.942-9.986 5.492 0 9.944 4.47 9.944 9.986 0 5.515-4.452 9.986-9.944 9.986-5.49 0-9.942-4.471-9.942-9.986z"/></g></g><g><path d="M319.762 6.275l8.305 11.022" fill="none"/><path d="M315.44034 11.962982c0-4.748575 3.832606-8.596678 8.5588-8.596678 4.727914 0 8.56052 3.848103 8.56052 8.596678 0 4.747715-3.832606 8.596679-8.56052 8.596679-4.726194 0-8.5588-3.848964-8.5588-8.596679z" fill="#ff9797" fill-opacity=".3" stroke="#ff5050" stroke-width=".860873"/><path d="M327.987 6.216l-8.145 11.14" fill="none"/><g fill="none"><path d="M327.987 6.216l-8.145 11.14M319.762 6.275l8.305 11.022M314.057 11.957c0-5.516 4.452-9.986 9.942-9.986 5.492 0 9.944 4.47 9.944 9.986 0 5.515-4.452 9.986-9.944 9.986-5.49 0-9.942-4.471-9.942-9.986z"/></g></g><g><path d="M343.762 6.275l8.305 11.022" fill="none"/><path d="M340.066479 11.96569c0-4.401217 3.552251-7.96783 7.932723-7.96783 4.382068 0 7.93432 3.566613 7.93432 7.96783 0 4.40042-3.552252 7.967831-7.93432 7.967831-4.380472 0-7.932723-3.567411-7.932723-7.96783z" fill="#ff9797" fill-opacity=".3" stroke="#ff5050" stroke-width=".7979"/><path d="M351.987 6.216l-8.145 11.14" fill="none"/><g fill="none"><path d="M351.987 6.216l-8.145 11.14M343.762 6.275l8.305 11.022M338.057 11.957c0-5.516 4.452-9.986 9.942-9.986 5.492 0 9.944 4.47 9.944 9.986 0 5.515-4.452 9.986-9.944 9.986-5.49 0-9.942-4.471-9.942-9.986z"/></g></g><g><path d="M367.762 6.275l8.305 11.022" fill="none"/><path d="M364.53792 11.96773c0-4.13968 3.341163-7.494351 7.46133-7.494351 4.121667 0 7.46283 3.35467 7.46283 7.49435 0 4.138929-3.341163 7.49435-7.46283 7.49435-4.120167 0-7.46133-3.355421-7.46133-7.49435z" fill="#ff9797" fill-opacity=".3" stroke="#ff5050" stroke-width=".750486"/><path d="M375.987 6.216l-8.145 11.14" fill="none"/><g fill="none"><path d="M375.987 6.216l-8.145 11.14M367.762 6.275l8.305 11.022M362.057 11.957c0-5.516 4.452-9.986 9.942-9.986 5.492 0 9.944 4.47 9.944 9.986 0 5.515-4.452 9.986-9.944 9.986-5.49 0-9.942-4.471-9.942-9.986z"/></g></g><g><path d="M391.762 6.275l8.305 11.022" fill="none"/><path d="M388.854665 11.969099c0-3.963961 3.19934-7.176236 7.144616-7.176236 3.946714 0 7.146054 3.212275 7.146054 7.176236 0 3.963242-3.19934 7.176236-7.146054 7.176236-3.945276 0-7.144616-3.212994-7.144616-7.176236z" fill="#ff9797" fill-opacity=".3" stroke="#ff5050" stroke-width=".71863"/><path d="M399.987 6.216l-8.145 11.14" fill="none"/><g fill="none"><path d="M399.987 6.216l-8.145 11.14M391.762 6.275l8.305 11.022M386.057 11.957c0-5.516 4.452-9.986 9.942-9.986 5.492 0 9.944 4.47 9.944 9.986 0 5.515-4.452 9.986-9.944 9.986-5.49 0-9.942-4.471-9.942-9.986z"/></g></g><g><path d="M415.762 6.275l8.305 11.022" fill="none"/><path d="M413.016713 11.9698c0-3.874064 3.126782-7.013488 6.982585-7.013488 3.857207 0 6.983989 3.139424 6.983989 7.013488 0 3.87336-3.126782 7.013487-6.98399 7.013487-3.855802 0-6.982584-3.140126-6.982584-7.013487z" fill="#ff9797" fill-opacity=".3" stroke="#ff5050" stroke-width=".702332"/><path d="M423.987 6.216l-8.145 11.14" fill="none"/><g fill="none"><path d="M423.987 6.216l-8.145 11.14M415.762 6.275l8.305 11.022M410.057 11.957c0-5.516 4.452-9.986 9.942-9.986 5.492 0 9.944 4.47 9.944 9.986 0 5.515-4.452 9.986-9.944 9.986-5.49 0-9.942-4.471-9.942-9.986z"/></g></g><g><path d="M439.762 6.275l8.305 11.022" fill="none"/><path d="M437.024063 11.969832c0-3.869986 3.123491-7.006106 6.975235-7.006106 3.853148 0 6.976639 3.13612 6.976639 7.006106 0 3.869283-3.123491 7.006105-6.976639 7.006105-3.851744 0-6.975235-3.136822-6.975235-7.006105z" fill="#ff9797" fill-opacity=".3" stroke="#ff5050" stroke-width=".701593"/><path d="M447.987 6.216l-8.145 11.14" fill="none"/><g fill="none"><path d="M447.987 6.216l-8.145 11.14M439.762 6.275l8.305 11.022M434.057 11.957c0-5.516 4.452-9.986 9.942-9.986 5.492 0 9.944 4.47 9.944 9.986 0 5.515-4.452 9.986-9.944 9.986-5.49 0-9.942-4.471-9.942-9.986z"/></g></g><g><path d="M468.15499 4.878747l-.183097 13.79942" fill="none" stroke="#ff5050" stroke-opacity=".055022" stroke-linecap="round"/><path d="M460.876717 11.969194c0-3.951728 3.189465-7.154089 7.122567-7.154089 3.934534 0 7.124 3.202361 7.124 7.15409 0 3.95101-3.189466 7.154088-7.124 7.154088-3.933102 0-7.122567-3.203077-7.122567-7.154089z" fill="#ff9797" fill-opacity=".3" stroke="#ff5050" stroke-width=".716412"/><path d="M467.61044 4.985795l.38185 13.794739" fill="none" stroke="#ff5050" stroke-opacity=".055022" stroke-linecap="round"/><g fill="none"><path d="M471.987 6.216l-8.145 11.14M463.762 6.275l8.305 11.022M458.057 11.957c0-5.516 4.452-9.986 9.942-9.986 5.492 0 9.944 4.47 9.944 9.986 0 5.515-4.452 9.986-9.944 9.986-5.49 0-9.942-4.471-9.942-9.986z"/></g></g><g><path d="M492.039381 4.87717l.040912 13.800573" fill="none" stroke="#ff5050" stroke-opacity=".121933" stroke-linecap="round"/><path d="M484.574673 11.967888c0-4.11929 3.324706-7.45744 7.42458-7.45744 4.101368 0 7.426074 3.33815 7.426074 7.45744 0 4.118544-3.324706 7.45744-7.426074 7.45744-4.099874 0-7.42458-3.338896-7.42458-7.45744z" fill="#ff9797" fill-opacity=".3" stroke="#ff5050" stroke-width=".746789"/><path d="M491.724343 4.980396l.15789 13.79912" fill="none" stroke="#ff5050" stroke-opacity=".121933" stroke-linecap="round"/><g fill="none"><path d="M495.987 6.216l-8.145 11.14M487.762 6.275l8.305 11.022M482.057 11.957c0-5.516 4.452-9.986 9.942-9.986 5.492 0 9.944 4.47 9.944 9.986 0 5.515-4.452 9.986-9.944 9.986-5.49 0-9.942-4.471-9.942-9.986z"/></g></g><g><path d="M515.799271 4.87989l.506061 13.791352" fill="none" stroke="#ff5050" stroke-opacity=".201646" stroke-linecap="round"/><path d="M508.117931 11.965913c0-4.372674 3.529214-7.916156 7.881276-7.916156 4.353648 0 7.882862 3.543482 7.882862 7.916156 0 4.37188-3.529214 7.916156-7.882862 7.916156-4.352062 0-7.881276-3.544276-7.881276-7.916156z" fill="#ff9797" fill-opacity=".3" stroke="#ff5050" stroke-width=".792725"/><path d="M515.961108 4.975093l-.307324 13.7966" fill="none" stroke="#ff5050" stroke-opacity=".201646" stroke-linecap="round"/><g fill="none"><path d="M519.987 6.216l-8.145 11.14M511.762 6.275l8.305 11.022M506.057 11.957c0-5.516 4.452-9.986 9.942-9.986 5.492 0 9.944 4.47 9.944 9.986 0 5.515-4.452 9.986-9.944 9.986-5.49 0-9.942-4.471-9.942-9.986z"/></g></g><g><path d="M539.382903 4.903842l1.312348 13.738095" fill="none" stroke="#ff5050" stroke-opacity=".295077" stroke-linecap="round"/><path d="M531.506493 11.963269c0-4.711877 3.802986-8.53024 8.492653-8.53024 4.691375 0 8.494361 3.818363 8.494361 8.53024 0 4.711022-3.802986 8.530238-8.494361 8.530238-4.689667 0-8.492653-3.819216-8.492653-8.530238z" fill="#ff9797" fill-opacity=".3" stroke="#ff5050" stroke-width=".85422"/><path d="M540.372315 4.984859l-1.114259 13.754964" fill="none" stroke="#ff5050" stroke-opacity=".295077" stroke-linecap="round"/><g fill="none"><path d="M543.987 6.216l-8.145 11.14M535.762 6.275l8.305 11.022M530.057 11.957c0-5.516 4.452-9.986 9.942-9.986 5.492 0 9.944 4.47 9.944 9.986 0 5.515-4.452 9.986-9.944 9.986-5.49 0-9.942-4.471-9.942-9.986z"/></g></g><g><path d="M562.770557 4.983966l2.497401 13.572785" fill="none" stroke="#ff5050" stroke-opacity=".40314" stroke-linecap="round"/><path d="M554.740357 11.959955c0-5.136899 4.146025-9.299687 9.258712-9.299687 5.114549 0 9.260574 4.162788 9.260574 9.299687 0 5.135968-4.146025 9.299688-9.260574 9.299688-5.112687 0-9.258712-4.16372-9.258712-9.299688z" fill="#ff9797" fill-opacity=".3" stroke="#ff5050" stroke-width=".931273"/><path d="M564.978563 5.043475l-2.301517 13.60675" fill="none" stroke="#ff5050" stroke-opacity=".40314" stroke-linecap="round"/><g fill="none"><path d="M567.987 6.216l-8.145 11.14M559.762 6.275l8.305 11.022M554.057 11.957c0-5.516 4.452-9.986 9.942-9.986 5.492 0 9.944 4.47 9.944 9.986 0 5.515-4.452 9.986-9.944 9.986-5.49 0-9.942-4.471-9.942-9.986z"/></g></g><g><path d="M586.07687 5.141586l3.838773 13.255993" fill="none" stroke="#ff5050" stroke-opacity=".526749" stroke-linecap="round"/><path d="M578.18764 11.957565c0-5.443526 4.393506-9.854795 9.811373-9.854795 5.419841 0 9.813347 4.411269 9.813347 9.854795 0 5.442539-4.393506 9.854795-9.813347 9.854795-5.417867 0-9.811373-4.412256-9.811373-9.854795z" fill="#ff9797" fill-opacity=".3" stroke="#ff5050" stroke-width=".986861"/><path d="M589.667566 5.175775l-3.647254 13.309326" fill="none" stroke="#ff5050" stroke-opacity=".526749" stroke-linecap="round"/><g fill="none"><path d="M591.987 6.216l-8.145 11.14M583.762 6.275l8.305 11.022M578.057 11.957c0-5.516 4.452-9.986 9.942-9.986 5.492 0 9.944 4.47 9.944 9.986 0 5.515-4.452 9.986-9.944 9.986-5.49 0-9.942-4.471-9.942-9.986z"/></g></g><g><path d="M609.473049 5.340361l5.005357 12.860946" fill="none" stroke="#ff5050" stroke-opacity=".666819" stroke-linecap="round"/><path d="M602.627216 11.959466c0-5.199666 4.196685-9.413318 9.371841-9.413318 5.177042 0 9.373727 4.213652 9.373727 9.413318 0 5.198723-4.196685 9.413318-9.373727 9.413318-5.175156 0-9.37184-4.214595-9.37184-9.413318z" fill="#ff9797" fill-opacity=".3" stroke="#ff5050" stroke-width=".942651"/><path d="M614.269356 5.351628l-4.819355 12.931142" fill="none" stroke="#ff5050" stroke-opacity=".666819" stroke-linecap="round"/><g fill="none"><path d="M615.987 6.216l-8.145 11.14M607.762 6.275l8.305 11.022M602.057 11.957c0-5.516 4.452-9.986 9.942-9.986 5.492 0 9.944 4.47 9.944 9.986 0 5.515-4.452 9.986-9.944 9.986-5.49 0-9.942-4.471-9.942-9.986z"/></g></g><g><path d="M633.010784 5.534642l5.897762 12.476935" fill="none" stroke="#ff5050" stroke-opacity=".824265" stroke-linecap="round"/><path d="M626.912096 11.960698c0-5.041625 4.069129-9.127206 9.08699-9.127206 5.01969 0 9.088818 4.08558 9.088818 9.127206 0 5.040711-4.069129 9.127206-9.088818 9.127206-5.017861 0-9.08699-4.086495-9.08699-9.127206z" fill="#ff9797" fill-opacity=".3" stroke="#ff5050" stroke-width=".914"/><path d="M638.731467 5.527758l-5.71716 12.560044" fill="none" stroke="#ff5050" stroke-opacity=".824265" stroke-linecap="round"/><g fill="none"><path d="M639.987 6.216l-8.145 11.14M631.762 6.275l8.305 11.022M626.057 11.957c0-5.516 4.452-9.986 9.942-9.986 5.492 0 9.944 4.47 9.944 9.986 0 5.515-4.452 9.986-9.944 9.986-5.49 0-9.942-4.471-9.942-9.986z"/></g></g><g><path d="M656.666744 5.705107l6.561507 12.14101" fill="none" stroke="#ff5050" stroke-linecap="round"/><path d="M651.042278 11.961261c0-4.969405 4.01084-8.996461 8.956821-8.996461 4.947783 0 8.958623 4.027056 8.958623 8.996461 0 4.968504-4.01084 8.996461-8.958623 8.996461-4.945981 0-8.956821-4.027957-8.956821-8.996461z" fill="#ff9797" fill-opacity=".3" stroke="#ff5050" stroke-width=".900907"/><path d="M663.076252 5.684345l-6.385646 12.23373" fill="none" stroke="#ff5050" stroke-linecap="round"/><g fill="none"><path d="M663.987 6.216l-8.145 11.14M655.762 6.275l8.305 11.022M650.057 11.957c0-5.516 4.452-9.986 9.942-9.986 5.492 0 9.944 4.47 9.944 9.986 0 5.515-4.452 9.986-9.944 9.986-5.49 0-9.942-4.471-9.942-9.986z"/></g></g><g><path d="M680.409798 5.848031l7.056968 11.859879" fill="none" stroke="#ff5050" stroke-linecap="round"/><path d="M675.017763 11.961155c0-4.983005 4.021816-9.021082 8.981334-9.021082 4.961324 0 8.98314 4.038077 8.98314 9.021082 0 4.982102-4.021816 9.021082-8.98314 9.021082-4.959518 0-8.981334-4.03898-8.981334-9.021082z" fill="#ff9797" fill-opacity=".3" stroke="#ff5050" stroke-width=".903373"/><path d="M687.334274 5.81668l-6.885083 11.959777" fill="none" stroke="#ff5050" stroke-linecap="round"/><g fill="none"><path d="M687.987 6.216l-8.145 11.14M679.762 6.275l8.305 11.022M674.057 11.957c0-5.516 4.452-9.986 9.942-9.986 5.492 0 9.944 4.47 9.944 9.986 0 5.515-4.452 9.986-9.944 9.986-5.49 0-9.942-4.471-9.942-9.986z"/></g></g><g><path d="M704.216574 5.96494l7.4294 11.630198" fill="none" stroke="#ff5050" stroke-linecap="round"/><path d="M698.83855 11.96038c0-5.082425 4.10206-9.20107 9.160529-9.20107 5.060311 0 9.16237 4.118645 9.16237 9.20107 0 5.081504-4.102059 9.20107-9.16237 9.20107-5.05847 0-9.160528-4.119566-9.160528-9.20107z" fill="#ff9797" fill-opacity=".3" stroke="#ff5050" stroke-width=".921397"/><path d="M711.52862 5.92549l-7.260769 11.735496" fill="none" stroke="#ff5050" stroke-linecap="round"/><g fill="none"><path d="M711.987 6.216l-8.145 11.14M703.762 6.275l8.305 11.022M698.057 11.957c0-5.516 4.452-9.986 9.942-9.986 5.492 0 9.944 4.47 9.944 9.986 0 5.515-4.452 9.986-9.944 9.986-5.49 0-9.942-4.471-9.942-9.986z"/></g></g><g><path d="M728.071029 6.058666l7.70984 11.446216" fill="none" stroke="#ff5050" stroke-linecap="round"/><path d="M722.504641 11.958936c0-5.267666 4.251568-9.536423 9.494404-9.536423 5.244746 0 9.496314 4.268757 9.496314 9.536423 0 5.26671-4.251568 9.536423-9.496314 9.536423-5.242836 0-9.494404-4.269712-9.494404-9.536423z" fill="#ff9797" fill-opacity=".3" stroke="#ff5050" stroke-width=".954979"/><path d="M735.6752 6.013037l-7.543819 11.55558" fill="none" stroke="#ff5050" stroke-linecap="round"/><g fill="none"><path d="M735.987 6.216l-8.145 11.14M727.762 6.275l8.305 11.022M722.057 11.957c0-5.516 4.452-9.986 9.942-9.986 5.492 0 9.944 4.47 9.944 9.986 0 5.515-4.452 9.986-9.944 9.986-5.49 0-9.942-4.471-9.942-9.986z"/></g></g><g><path d="M751.962165 6.132108l7.919547 11.302136" fill="none" stroke="#ff5050" stroke-linecap="round"/><path d="M746.084777 11.95712c0-5.50059 4.439563-9.958103 9.914226-9.958103 5.476657 0 9.91622 4.457513 9.91622 9.958103 0 5.499593-4.439563 9.958103-9.91622 9.958103-5.474663 0-9.914226-4.45851-9.914226-9.958103z" fill="#ff9797" fill-opacity=".3" stroke="#ff5050" stroke-width=".997206"/><path d="M759.784948 6.081808l-7.755569 11.414542" fill="none" stroke="#ff5050" stroke-linecap="round"/><g fill="none"><path d="M759.987 6.216l-8.145 11.14M751.762 6.275l8.305 11.022M746.057 11.957c0-5.516 4.452-9.986 9.942-9.986 5.492 0 9.944 4.47 9.944 9.986 0 5.515-4.452 9.986-9.944 9.986-5.49 0-9.942-4.471-9.942-9.986z"/></g></g><g><path d="M775.882294 6.187878l8.073374 11.192772" fill="none" stroke="#ff5050" stroke-linecap="round"/><path d="M770.388507 11.958434c0-5.332093 4.303567-9.65306 9.610526-9.65306 5.308893 0 9.61246 4.320967 9.61246 9.65306 0 5.331125-4.303567 9.653059-9.61246 9.653059-5.306959 0-9.610526-4.321934-9.610526-9.65306z" fill="#ff9797" fill-opacity=".3" stroke="#ff5050" stroke-width=".966659"/><path d="M783.86553 6.134124l-7.910948 11.30741" fill="none" stroke="#ff5050" stroke-linecap="round"/><g fill="none"><path d="M783.987 6.216l-8.145 11.14M775.762 6.275l8.305 11.022M770.057 11.957c0-5.516 4.452-9.986 9.942-9.986 5.492 0 9.944 4.47 9.944 9.986 0 5.515-4.452 9.986-9.944 9.986-5.49 0-9.942-4.471-9.942-9.986z"/></g></g><g><path d="M799.825903 6.228242l8.181962 11.113641" fill="none" stroke="#ff5050" stroke-linecap="round"/><path d="M794.537541 11.959078c0-5.249414 4.236837-9.50338 9.461507-9.50338 5.226574 0 9.463411 4.253966 9.463411 9.50338 0 5.248463-4.236837 9.503381-9.46341 9.503381-5.224671 0-9.461508-4.254918-9.461508-9.50338z" fill="#ff9797" fill-opacity=".3" stroke="#ff5050" stroke-width=".95167"/><path d="M807.922456 6.172036l-8.02066 11.229855" fill="none" stroke="#ff5050" stroke-linecap="round"/><g fill="none"><path d="M807.987 6.216l-8.145 11.14M799.762 6.275l8.305 11.022M794.057 11.957c0-5.516 4.452-9.986 9.942-9.986 5.492 0 9.944 4.47 9.944 9.986 0 5.515-4.452 9.986-9.944 9.986-5.49 0-9.942-4.471-9.942-9.986z"/></g></g><g><path d="M823.788955 6.255144l8.253104 11.060913" fill="none" stroke="#ff5050" stroke-linecap="round"/><path d="M818.531877 11.959054c0-5.252556 4.239373-9.50907 9.46717-9.50907 5.229703 0 9.469076 4.256514 9.469076 9.50907 0 5.251603-4.239373 9.509069-9.469075 9.509069-5.227798 0-9.46717-4.257466-9.46717-9.50907z" fill="#ff9797" fill-opacity=".3" stroke="#ff5050" stroke-width=".95224"/><path d="M831.95977 6.197325l-8.09255 11.178159" fill="none" stroke="#ff5050" stroke-linecap="round"/><g fill="none"><path d="M831.987 6.216l-8.145 11.14M823.762 6.275l8.305 11.022M818.057 11.957c0-5.516 4.452-9.986 9.942-9.986 5.492 0 9.944 4.47 9.944 9.986 0 5.515-4.452 9.986-9.944 9.986-5.49 0-9.942-4.471-9.942-9.986z"/></g></g><g><path d="M847.768423 6.270251l8.292634 11.031306" fill="none" stroke="#ff5050" stroke-linecap="round"/><path d="M842.371516 11.95836c0-5.341518 4.311175-9.670123 9.627516-9.670123 5.318277 0 9.629452 4.328605 9.629452 9.670123 0 5.34055-4.311175 9.670124-9.629452 9.670124-5.316341 0-9.627516-4.329574-9.627516-9.670124z" fill="#ff9797" fill-opacity=".3" stroke="#ff5050" stroke-width=".968368"/><path d="M855.980511 6.211533L847.84801 17.36066" fill="none" stroke="#ff5050" stroke-linecap="round"/><g fill="none"><path d="M855.987 6.216l-8.145 11.14M847.762 6.275l8.305 11.022M842.057 11.957c0-5.516 4.452-9.986 9.942-9.986 5.492 0 9.944 4.47 9.944 9.986 0 5.515-4.452 9.986-9.944 9.986-5.49 0-9.942-4.471-9.942-9.986z"/></g></g><g><path d="M871.762 6.275l8.305 11.022" fill="none" stroke="#ff5050" stroke-linecap="round"/><path d="M866.057 11.957c0-5.516 4.452-9.986 9.942-9.986 5.492 0 9.944 4.47 9.944 9.986 0 5.515-4.452 9.986-9.944 9.986-5.49 0-9.942-4.471-9.942-9.986z" fill="#ff9797" fill-opacity=".3" stroke="#ff5050"/><path d="M879.987 6.216l-8.145 11.14" fill="none" stroke="#ff5050" stroke-linecap="round"/><g fill="none"><path d="M879.987 6.216l-8.145 11.14M871.762 6.275l8.305 11.022M866.057 11.957c0-5.516 4.452-9.986 9.942-9.986 5.492 0 9.944 4.47 9.944 9.986 0 5.515-4.452 9.986-9.944 9.986-5.49 0-9.942-4.471-9.942-9.986z"/></g></g></svg>