<svg xmlns="http://www.w3.org/2000/svg" viewBox="0 0 888 24" width="888" height="24"><g stroke="#50ff50"><path d="M2.124 12c0-5.423 4.422-9.818 9.877-9.818 5.452 0 9.874 4.395 9.874 9.818s-4.422 9.818-9.874 9.818c-5.455 0-9.877-4.395-9.877-9.818z" fill="#50ff50" fill-opacity=".2"/><path d="M17.914 7.12l-6.564 9.416-4.116-4.259" fill="none" stroke-dasharray="17.401095437332792,0" stroke-dashoffset="17.401095" stroke-linecap="round" stroke-linejoin="bevel" stroke-miterlimit="1"/></g><g stroke="#50ff50"><path d="M45.875 12c0 4.218-4.422 7.637-9.874 7.637-5.455 0-9.877-3.419-9.877-7.637s4.422-7.637 9.877-7.637c5.452 0 9.874 3.419 9.874 7.637" fill="#50ff50" fill-opacity=".2"/><path d="M41.914 7.12l-6.564 9.416-4.116-4.259" fill="none" stroke-dasharray="0.02612932016981847,17.374966117162973" stroke-dashoffset=".026129" stroke-linecap="round" stroke-linejoin="bevel" stroke-miterlimit="1"/></g><g stroke="#50ff50"><path d="M69.875 12c0 3.014-4.422 5.457-9.874 5.457-5.455 0-9.877-2.443-9.877-5.457s4.422-5.457 9.877-5.457c5.452 0 9.874 2.443 9.874 5.457" fill="#50ff50" fill-opacity=".2"/><path d="M65.914 7.12l-6.564 9.416-4.116-4.259" fill="none" stroke-dasharray="0.11803788179983517,17.283057555532956" stroke-dashoffset=".118038" stroke-linecap="round" stroke-linejoin="bevel" stroke-miterlimit="1"/></g><g stroke="#50ff50"><path d="M93.875 12c0 1.891-4.422 3.423-9.874 3.423-5.455 0-9.877-1.532-9.877-3.423s4.422-3.423 9.877-3.423c5.452 0 9.874 1.532 9.874 3.423" fill="#50ff50" fill-opacity=".2"/><path d="M89.914 7.12l-6.564 9.416-4.116-4.259" fill="none" stroke-dasharray="0.2885398977830521,17.11255553954974" stroke-dashoffset=".28854" stroke-linecap="round" stroke-linejoin="bevel" stroke-miterlimit="1"/></g><g stroke="#50ff50"><path d="M117.875 12c0 .847-4.422 1.534-9.874 1.534-5.455 0-9.877-.687-9.877-1.534s4.422-1.534 9.877-1.534c5.452 0 9.874.687 9.874 1.534" fill="#50ff50" fill-opacity=".2"/><path d="M113.914 7.12l-6.564 9.416-4.116-4.259" fill="none" stroke-dasharray="0.5536119311297704,16.847483506203023" stroke-dashoffset=".553612" stroke-linecap="round" stroke-linejoin="bevel" stroke-miterlimit="1"/></g><g stroke="#50ff50"><path d="M141.875 12c0-.116-4.422-.21-9.874-.21-5.455 0-9.877.094-9.877.21 0 .116 4.422.21 9.877.21 5.452 0 9.874-.094 9.874-.21" fill="#50ff50" fill-opacity=".2"/><path d="M137.914 7.12l-6.564 9.416-4.116-4.259" fill="none" stroke-dasharray="0.9331215524287501,16.46797388490404" stroke-dashoffset=".933122" stroke-linecap="round" stroke-linejoin="bevel" stroke-miterlimit="1"/></g><g stroke="#50ff50"><path d="M165.875 12c0-.999-4.422-1.808-9.874-1.808-5.455 0-9.877.809-9.877 1.808s4.422 1.808 9.877 1.808c5.452 0 9.874-.809 9.874-1.808" fill="#50ff50" fill-opacity=".2"/><path d="M161.914 7.12l-6.564 9.416-4.116-4.259" fill="none" stroke-dasharray="1.4509368357733374,15.950158601559455" stroke-dashoffset="1.450937" stroke-linecap="round" stroke-linejoin="bevel" stroke-miterlimit="1"/></g><g stroke="#50ff50"><path d="M189.875 12c0-1.801-4.422-3.261-9.874-3.261-5.455 0-9.877 1.46-9.877 3.261 0 1.801 4.422 3.261 9.877 3.261 5.452 0 9.874-1.46 9.874-3.261" fill="#50ff50" fill-opacity=".2"/><path d="M185.914 7.12l-6.564 9.416-4.116-4.259" fill="none" stroke-dasharray="2.1332817906919015,15.26781364664089" stroke-dashoffset="2.133282" stroke-linecap="round" stroke-linejoin="bevel" stroke-miterlimit="1"/></g><g stroke="#50ff50"><path d="M213.875 12c0-2.524-4.422-4.569-9.874-4.569-5.455 0-9.877 2.045-9.877 4.569s4.422 4.569 9.877 4.569c5.452 0 9.874-2.045 9.874-4.569" fill="#50ff50" fill-opacity=".2"/><path d="M209.914 7.12l-6.564 9.416-4.116-4.259" fill="none" stroke-dasharray="3.0027680900712865,14.398327347261505" stroke-dashoffset="3.002768" stroke-linecap="round" stroke-linejoin="bevel" stroke-miterlimit="1"/></g><g stroke="#50ff50"><path d="M237.875 12c0-3.166-4.422-5.731-9.874-5.731-5.455 0-9.877 2.565-9.877 5.731s4.422 5.731 9.877 5.731c5.452 0 9.874-2.565 9.874-5.731" fill="#50ff50" fill-opacity=".2"/><path d="M233.914 7.12l-6.564 9.416-4.116-4.259" fill="none" stroke-dasharray="4.064871215306733,13.33622422202606" stroke-dashoffset="4.064871" stroke-linecap="round" stroke-linejoin="bevel" stroke-miterlimit="1"/></g><g stroke="#50ff50"><path d="M261.875 12c0-3.728-4.422-6.748-9.874-6.748-5.455 0-9.877 3.02-9.877 6.748s4.422 6.748 9.877 6.748c5.452 0 9.874-3.02 9.874-6.748" fill="#50ff50" fill-opacity=".2"/><path d="M257.914 7.12l-6.564 9.416-4.116-4.259" fill="none" stroke-dasharray="5.288889404181107,12.112206033151685" stroke-dashoffset="5.288889" stroke-linecap="round" stroke-linejoin="bevel" stroke-miterlimit="1"/></g><g stroke="#50ff50"><path d="M285.875 12c0-4.209-4.422-7.62-9.874-7.62-5.455 0-9.877 3.411-9.877 7.62s4.422 7.62 9.877 7.62c5.452 0 9.874-3.411 9.874-7.62" fill="#50ff50" fill-opacity=".2"/><path d="M281.914 7.12l-6.564 9.416-4.116-4.259" fill="none" stroke-dasharray="6.600524801492648,10.800570635840144" stroke-dashoffset="6.600525" stroke-linecap="round" stroke-linejoin="bevel" stroke-miterlimit="1"/></g><g stroke="#50ff50"><path d="M309.875 12c0-4.61-4.422-8.347-9.874-8.347-5.455 0-9.877 3.737-9.877 8.347 0 4.61 4.422 8.347 9.877 8.347 5.452 0 9.874-3.737 9.874-8.347" fill="#50ff50" fill-opacity=".2"/><path d="M305.914 7.12l-6.564 9.416-4.116-4.259" fill="none" stroke-dasharray="7.905783676383241,9.495311760949551" stroke-dashoffset="7.905784" stroke-linecap="round" stroke-linejoin="bevel" stroke-miterlimit="1"/></g><g stroke="#50ff50"><path d="M333.875 12c0-4.931-4.422-8.928-9.874-8.928-5.455 0-9.877 3.997-9.877 8.928 0 4.931 4.422 8.928 9.877 8.928 5.452 0 9.874-3.997 9.874-8.928" fill="#50ff50" fill-opacity=".2"/><path d="M329.914 7.12l-6.564 9.416-4.116-4.259" fill="none" stroke-dasharray="9.129976209838603,8.27111922749419" stroke-dashoffset="9.129976" stroke-linecap="round" stroke-linejoin="bevel" stroke-miterlimit="1"/></g><g stroke="#50ff50"><path d="M357.875 12c0-5.172-4.422-9.364-9.874-9.364-5.455 0-9.877 4.192-9.877 9.364 0 5.172 4.422 9.364 9.877 9.364 5.452 0 9.874-4.192 9.874-9.364" fill="#50ff50" fill-opacity=".2"/><path d="M353.914 7.12l-6.564 9.416-4.116-4.259" fill="none" stroke-dasharray="10.235323444208417,7.165771993124374" stroke-dashoffset="10.235323" stroke-linecap="round" stroke-linejoin="bevel" stroke-miterlimit="1"/></g><g stroke="#50ff50"><path d="M381.875 12c0-5.333-4.422-9.655-9.874-9.655-5.455 0-9.877 4.322-9.877 9.655 0 5.333 4.422 9.655 9.877 9.655 5.452 0 9.874-4.322 9.874-9.655" fill="#50ff50" fill-opacity=".2"/><path d="M377.914 7.12l-6.564 9.416-4.116-4.259" fill="none" stroke-dasharray="11.213401905829976,6.187693531502816" stroke-dashoffset="11.213402" stroke-linecap="round" stroke-linejoin="bevel" stroke-miterlimit="1"/></g><g stroke="#50ff50"><path d="M405.875 12c0-5.413-4.422-9.8-9.874-9.8-5.455 0-9.877 4.387-9.877 9.8 0 5.413 4.422 9.8 9.877 9.8 5.452 0 9.874-4.387 9.874-9.8" fill="#50ff50" fill-opacity=".2"/><path d="M401.914 7.12l-6.564 9.416-4.116-4.259" fill="none" stroke-dasharray="12.071184845774209,5.329910591558583" stroke-dashoffset="12.071185" stroke-linecap="round" stroke-linejoin="bevel" stroke-miterlimit="1"/></g><g stroke="#50ff50"><path d="M429.875 12c0 5.401-4.422 9.779-9.874 9.779-5.455 0-9.877-4.378-9.877-9.779s4.422-9.779 9.877-9.779c5.452 0 9.874 4.378 9.874 9.779" fill="#50ff50" fill-opacity=".2"/><path d="M425.914 7.12l-6.564 9.416-4.116-4.259" fill="none" stroke-dasharray="12.821313056731837,4.579782380600954" stroke-dashoffset="12.821313" stroke-linecap="round" stroke-linejoin="bevel" stroke-miterlimit="1"/></g><g stroke="#50ff50"><path d="M453.875 12c0 5.2-4.422 9.414-9.874 9.414-5.455 0-9.877-4.214-9.877-9.414 0-5.2 4.422-9.414 9.877-9.414 5.452 0 9.874 4.214 9.874 9.414" fill="#50ff50" fill-opacity=".2"/><path d="M449.914 7.12l-6.564 9.416-4.116-4.259" fill="none" stroke-dasharray="13.477259649935352,3.9238357873974405" stroke-dashoffset="13.47726" stroke-linecap="round" stroke-linejoin="bevel" stroke-miterlimit="1"/></g><g stroke="#50ff50"><path d="M477.875 12c0 4.703-4.422 8.514-9.874 8.514-5.455 0-9.877-3.811-9.877-8.514 0-4.703 4.422-8.514 9.877-8.514 5.452 0 9.874 3.811 9.874 8.514" fill="#50ff50" fill-opacity=".2"/><path d="M473.914 7.12l-6.564 9.416-4.116-4.259" fill="none" stroke-dasharray="14.051404919863945,3.3496905174688476" stroke-dashoffset="14.051405" stroke-linecap="round" stroke-linejoin="bevel" stroke-miterlimit="1"/></g><g stroke="#50ff50"><path d="M501.875 12c0 3.767-4.422 6.82-9.874 6.82-5.455 0-9.877-3.053-9.877-6.82 0-3.767 4.422-6.82 9.877-6.82 5.452 0 9.874 3.053 9.874 6.82" fill="#50ff50" fill-opacity=".2"/><path d="M497.914 7.12l-6.564 9.416-4.116-4.259" fill="none" stroke-dasharray="14.554477870291624,2.846617567041168" stroke-dashoffset="14.554478" stroke-linecap="round" stroke-linejoin="bevel" stroke-miterlimit="1"/></g><g stroke="#50ff50"><path d="M525.875 12c0 2.292-4.422 4.15-9.874 4.15-5.455 0-9.877-1.858-9.877-4.15 0-2.292 4.422-4.15 9.877-4.15 5.452 0 9.874 1.858 9.874 4.15" fill="#50ff50" fill-opacity=".2"/><path d="M521.914 7.12l-6.564 9.416-4.116-4.259" fill="none" stroke-dasharray="14.995554451738007,2.4055409855947847" stroke-dashoffset="14.995554" stroke-linecap="round" stroke-linejoin="bevel" stroke-miterlimit="1"/></g><g stroke="#50ff50"><path d="M549.875 12c0 .532-4.422.964-9.874.964-5.455 0-9.877-.432-9.877-.964s4.422-.964 9.877-.964c5.452 0 9.874.432 9.874.964" fill="#50ff50" fill-opacity=".2"/><path d="M545.914 7.12l-6.564 9.416-4.116-4.259" fill="none" stroke-dasharray="15.382247387684108,2.018848049648683" stroke-dashoffset="15.382247" stroke-linecap="round" stroke-linejoin="bevel" stroke-miterlimit="1"/></g><g stroke="#50ff50"><path d="M573.875 12c0-1.031-4.422-1.867-9.874-1.867-5.455 0-9.877.836-9.877 1.867 0 1.031 4.422 1.867 9.877 1.867 5.452 0 9.874-.836 9.874-1.867" fill="#50ff50" fill-opacity=".2"/><path d="M569.914 7.12l-6.564 9.416-4.116-4.259" fill="none" stroke-dasharray="15.720937245653914,1.6801581916788784" stroke-dashoffset="15.720937" stroke-linecap="round" stroke-linejoin="bevel" stroke-miterlimit="1"/></g><g stroke="#50ff50"><path d="M597.875 12c0-2.237-4.422-4.051-9.874-4.051-5.455 0-9.877 1.814-9.877 4.051s4.422 4.051 9.877 4.051c5.452 0 9.874-1.814 9.874-4.051" fill="#50ff50" fill-opacity=".2"/><path d="M593.914 7.12l-6.564 9.416-4.116-4.259" fill="none" stroke-dasharray="16.016988792032365,1.3841066453004287" stroke-dashoffset="16.016989" stroke-linecap="round" stroke-linejoin="bevel" stroke-miterlimit="1"/></g><g stroke="#50ff50"><path d="M621.875 12c0-3.141-4.422-5.686-9.874-5.686-5.455 0-9.877 2.545-9.877 5.686s4.422 5.686 9.877 5.686c5.452 0 9.874-2.545 9.874-5.686" fill="#50ff50" fill-opacity=".2"/><path d="M617.914 7.12l-6.564 9.416-4.116-4.259" fill="none" stroke-dasharray="16.27493585081019,1.126159586522602" stroke-dashoffset="16.274936" stroke-linecap="round" stroke-linejoin="bevel" stroke-miterlimit="1"/></g><g stroke="#50ff50"><path d="M645.875 12c0-3.819-4.422-6.914-9.874-6.914-5.455 0-9.877 3.095-9.877 6.914 0 3.819 4.422 6.914 9.877 6.914 5.452 0 9.874-3.095 9.874-6.914" fill="#50ff50" fill-opacity=".2"/><path d="M641.914 7.12l-6.564 9.416-4.116-4.259" fill="none" stroke-dasharray="16.498633154939625,0.9024622823931647" stroke-dashoffset="16.498633" stroke-linecap="round" stroke-linejoin="bevel" stroke-miterlimit="1"/></g><g stroke="#50ff50"><path d="M669.875 12c0-4.329-4.422-7.837-9.874-7.837-5.455 0-9.877 3.508-9.877 7.837s4.422 7.837 9.877 7.837c5.452 0 9.874-3.508 9.874-7.837" fill="#50ff50" fill-opacity=".2"/><path d="M665.914 7.12l-6.564 9.416-4.116-4.259" fill="none" stroke-dasharray="16.69137894380507,0.7097164935277213" stroke-dashoffset="16.691379" stroke-linecap="round" stroke-linejoin="bevel" stroke-miterlimit="1"/></g><g stroke="#50ff50"><path d="M693.875 12c0-4.71-4.422-8.528-9.874-8.528-5.455 0-9.877 3.818-9.877 8.528 0 4.71 4.422 8.528 9.877 8.528 5.452 0 9.874-3.818 9.874-8.528" fill="#50ff50" fill-opacity=".2"/><path d="M689.914 7.12l-6.564 9.416-4.116-4.259" fill="none" stroke-dasharray="16.856013304862884,0.5450821324699091" stroke-dashoffset="16.856013" stroke-linecap="round" stroke-linejoin="bevel" stroke-miterlimit="1"/></g><g stroke="#50ff50"><path d="M717.875 12c0-4.991-4.422-9.035-9.874-9.035-5.455 0-9.877 4.044-9.877 9.035 0 4.991 4.422 9.035 9.877 9.035 5.452 0 9.874-4.044 9.874-9.035" fill="#50ff50" fill-opacity=".2"/><path d="M713.914 7.12l-6.564 9.416-4.116-4.259" fill="none" stroke-dasharray="16.994997003990143,0.4060984333426503" stroke-dashoffset="16.994997" stroke-linecap="round" stroke-linejoin="bevel" stroke-miterlimit="1"/></g><g stroke="#50ff50"><path d="M741.875 12c0-5.189-4.422-9.395-9.874-9.395-5.455 0-9.877 4.206-9.877 9.395 0 5.189 4.422 9.395 9.877 9.395 5.452 0 9.874-4.206 9.874-9.395" fill="#50ff50" fill-opacity=".2"/><path d="M737.914 7.12l-6.564 9.416-4.116-4.259" fill="none" stroke-dasharray="17.110474834287114,0.29062060304567816" stroke-dashoffset="17.110475" stroke-linecap="round" stroke-linejoin="bevel" stroke-miterlimit="1"/></g><g stroke="#50ff50"><path d="M765.875 12c0-5.321-4.422-9.633-9.874-9.633-5.455 0-9.877 4.312-9.877 9.633 0 5.321 4.422 9.633 9.877 9.633 5.452 0 9.874-4.312 9.874-9.633" fill="#50ff50" fill-opacity=".2"/><path d="M761.914 7.12l-6.564 9.416-4.116-4.259" fill="none" stroke-dasharray="17.204326742942275,0.19676869439051733" stroke-dashoffset="17.204327" stroke-linecap="round" stroke-linejoin="bevel" stroke-miterlimit="1"/></g><g stroke="#50ff50"><path d="M789.875 12c0-5.396-4.422-9.769-9.874-9.769-5.455 0-9.877 4.373-9.877 9.769s4.422 9.769 9.877 9.769c5.452 0 9.874-4.373 9.874-9.769" fill="#50ff50" fill-opacity=".2"/><path d="M785.914 7.12l-6.564 9.416-4.116-4.259" fill="none" stroke-dasharray="17.27820931231635,0.12288612501644271" stroke-dashoffset="17.278209" stroke-linecap="round" stroke-linejoin="bevel" stroke-miterlimit="1"/></g><g stroke="#50ff50"><path d="M813.875 12c0-5.423-4.422-9.817-9.874-9.817-5.455 0-9.877 4.394-9.877 9.817s4.422 9.817 9.877 9.817c5.452 0 9.874-4.394 9.874-9.817" fill="#50ff50" fill-opacity=".2"/><path d="M809.914 7.12l-6.564 9.416-4.116-4.259" fill="none" stroke-dasharray="17.333589609708046,0.06750582762474605" stroke-dashoffset="17.33359" stroke-linecap="round" stroke-linejoin="bevel" stroke-miterlimit="1"/></g><g stroke="#50ff50"><path d="M837.875 12c0-5.423-4.422-9.818-9.874-9.818-5.455 0-9.877 4.395-9.877 9.818s4.422 9.818 9.877 9.818c5.452 0 9.874-4.395 9.874-9.818" fill="#50ff50" fill-opacity=".2"/><path d="M833.914 7.12l-6.564 9.416-4.116-4.259" fill="none" stroke-dasharray="17.371772975054505,0.029322462278287054" stroke-dashoffset="17.371773" stroke-linecap="round" stroke-linejoin="bevel" stroke-miterlimit="1"/></g><g stroke="#50ff50"><path d="M861.875 12c0-5.423-4.422-9.818-9.874-9.818-5.455 0-9.877 4.395-9.877 9.818s4.422 9.818 9.877 9.818c5.452 0 9.874-4.395 9.874-9.818" fill="#50ff50" fill-opacity=".2"/><path d="M857.914 7.12l-6.564 9.416-4.116-4.259" fill="none" stroke-dasharray="17.393925969161423,0.007169468171370138" stroke-dashoffset="17.393926" stroke-linecap="round" stroke-linejoin="bevel" stroke-miterlimit="1"/></g><g stroke="#50ff50"><path d="M885.875 12c0-5.423-4.422-9.818-9.874-9.818-5.455 0-9.877 4.395-9.877 9.818s4.422 9.818 9.877 9.818c5.452 0 9.874-4.395 9.874-9.818" fill="#50ff50" fill-opacity=".2"/><path d="M881.914 7.12l-6.564 9.416-4.116-4.259" fill="none" stroke-dasharray="17.401095437332792,0" stroke-dashoffset="17.401095" stroke-linecap="round" stroke-linejoin="bevel" stroke-miterlimit="1"/></g></svg>